<svg width="48" height="48" viewBox="0 0 48 48" fill="none" xmlns="http://www.w3.org/2000/svg">
<rect x="1.2" y="1.2" width="45.6" height="45.6" rx="22.8" stroke="#F5F7FA" stroke-width="2.4"/>
<g clip-path="url(#clip0_1_218)">
<path d="M15 17.975C15 17.4026 15.2027 16.9304 15.6081 16.5583C16.0135 16.1863 16.5405 16.0002 17.1892 16.0002C17.8262 16.0002 18.3417 16.1834 18.7355 16.5497C19.1409 16.9275 19.3436 17.4198 19.3436 18.0265C19.3436 18.576 19.1467 19.0339 18.7529 19.4002C18.3475 19.778 17.8146 19.9669 17.1544 19.9669H17.137C16.5 19.9669 15.9845 19.778 15.5907 19.4002C15.1969 19.0225 15 18.5474 15 17.975ZM15.2258 33.0002V21.5295H19.083V33.0002H15.2258ZM21.22 33.0002H25.0772V26.5952C25.0772 26.1945 25.1235 25.8854 25.2162 25.6679C25.3783 25.2787 25.6245 24.9495 25.9546 24.6805C26.2847 24.4115 26.6988 24.277 27.1969 24.277C28.4942 24.277 29.1428 25.1413 29.1428 26.8699V33.0002H33V26.4235C33 24.7292 32.5946 23.4442 31.7838 22.5684C30.9729 21.6927 29.9015 21.2548 28.5695 21.2548C27.0753 21.2548 25.9112 21.8901 25.0772 23.1608V23.1952H25.0598L25.0772 23.1608V21.5295H21.22C21.2432 21.8959 21.2548 23.0349 21.2548 24.9467C21.2548 26.8585 21.2432 29.543 21.22 33.0002Z" fill="#0C263A"/>
</g>
<defs>
<clipPath id="clip0_1_218">
<rect width="18" height="17" fill="white" transform="translate(15 16)"/>
</clipPath>
</defs>
</svg>
