<svg width="56" height="56" viewBox="0 0 56 56" fill="none" xmlns="http://www.w3.org/2000/svg">
<rect x="1" y="1" width="54" height="54" rx="27" stroke="white" stroke-opacity="0.16" stroke-width="2"/>
<path d="M30.9737 26.8721C31.2967 26.8721 31.6161 26.9397 31.9113 27.0706C32.2066 27.2015 32.4712 27.3928 32.6881 27.6321C32.9049 27.8714 33.0693 28.1535 33.1706 28.4601C33.2719 28.7668 33.3078 29.0913 33.2762 29.4127C33.2044 29.9959 32.9193 30.5319 32.4757 30.9174C32.0322 31.3029 31.4617 31.5105 30.8742 31.5004H32.3981L36.3482 27.5486C37.2689 26.628 38.5175 26.1108 39.8195 26.1108C41.1215 26.1108 42.3702 26.628 43.2908 27.5486L35.1831 35.656C34.702 36.1372 34.0494 36.4077 33.3689 36.4079H27.0386C26.6784 36.4079 26.3329 36.5509 26.078 36.8055L23.5795 39.3042L16.8377 32.5425L21.954 27.4277C22.1301 27.2515 22.3393 27.1118 22.5695 27.0165C22.7996 26.9211 23.0463 26.8721 23.2955 26.8721H30.9737Z" fill="#00D094"/>
<path d="M24.5253 40.2496L15.7178 31.4421L12.7103 34.4495L21.5179 43.257L24.5253 40.2496Z" fill="#00D094"/>
<path d="M33.1416 18.7974C33.6402 15.9587 31.7432 13.2534 28.9045 12.7548C26.0659 12.2562 23.3605 14.1532 22.8619 16.9918C22.3633 19.8304 24.2603 22.5358 27.099 23.0344C29.9376 23.5329 32.643 21.636 33.1416 18.7974Z" fill="#00D094"/>
<path d="M28.4316 20.5825V21.0616H27.6405V20.5594C26.9398 20.4797 26.281 20.1849 25.7547 19.7154L26.4849 18.8408C26.9612 19.2583 27.5703 19.4929 28.2036 19.5027C28.6902 19.5027 28.9409 19.3046 28.9409 19.0236C28.9409 18.7116 28.6976 18.6433 27.9372 18.4605C26.8196 18.2098 25.9905 17.9057 25.9905 16.8564C25.9905 15.9515 26.6446 15.3202 27.6405 15.2064V14.7273H28.4316V15.2064C29.0468 15.2607 29.6306 15.5021 30.1044 15.8982L29.4428 16.8258C29.0196 16.4837 28.4964 16.2888 27.9525 16.2706C27.5342 16.2706 27.2984 16.4684 27.2984 16.7269C27.2984 17.0463 27.5495 17.153 28.3249 17.3202C29.4961 17.571 30.2488 17.9057 30.2488 18.8866C30.2488 19.8601 29.5648 20.4914 28.4316 20.5825Z" fill="#010815"/>
<path d="M37.7128 32.2875L37.2031 32.7972C37.1463 32.8521 37.101 32.9177 37.0699 32.9903C37.0387 33.0628 37.0223 33.1409 37.0217 33.2198C37.021 33.2988 37.0361 33.3771 37.066 33.4501C37.0959 33.5232 37.1401 33.5896 37.1959 33.6454C37.2517 33.7012 37.3181 33.7454 37.3912 33.7752C37.4643 33.8051 37.5426 33.8202 37.6216 33.8195C37.7005 33.8188 37.7785 33.8023 37.8511 33.7712C37.9236 33.74 37.9892 33.6947 38.0441 33.6379L38.5555 33.1282C38.667 33.0167 38.7296 32.8654 38.7296 32.7077C38.7296 32.55 38.667 32.3987 38.5555 32.2872C38.4439 32.1757 38.2927 32.113 38.135 32.113C37.9773 32.113 37.826 32.1757 37.7145 32.2872L37.7128 32.2875Z" fill="#010815"/>
<path d="M43.7116 27.1283C42.6786 26.0978 41.2791 25.519 39.8199 25.519C38.3608 25.519 36.9613 26.0978 35.9283 27.1283L33.8817 29.1749C33.879 28.4055 33.5715 27.6686 33.0265 27.1256C32.4815 26.5826 31.7435 26.2777 30.9741 26.2778H23.2949C22.9676 26.2769 22.6433 26.3409 22.341 26.4662C22.0386 26.5915 21.7641 26.7756 21.5334 27.0077L16.8286 31.7127L16.1378 31.0219C16.0263 30.9105 15.875 30.8479 15.7173 30.8479C15.5596 30.8479 15.4084 30.9105 15.2968 31.0219L12.2897 34.0294C12.2344 34.0846 12.1906 34.1501 12.1607 34.2222C12.1308 34.2943 12.1154 34.3716 12.1154 34.4497C12.1154 34.5278 12.1308 34.6051 12.1607 34.6772C12.1906 34.7493 12.2344 34.8149 12.2897 34.87L21.0974 43.6777C21.1526 43.7329 21.2181 43.7767 21.2902 43.8067C21.3624 43.8366 21.4397 43.852 21.5177 43.852C21.5958 43.852 21.6731 43.8366 21.7453 43.8067C21.8174 43.7767 21.8829 43.7329 21.9381 43.6777L24.9456 40.6705C25.057 40.559 25.1196 40.4077 25.1196 40.2501C25.1196 40.0924 25.057 39.9411 24.9456 39.8296L24.4206 39.3046L26.4988 37.2265C26.5695 37.1553 26.6537 37.0989 26.7465 37.0605C26.8392 37.0221 26.9387 37.0025 27.039 37.0029H33.3693C33.7847 37.0039 34.1962 36.9226 34.58 36.7636C34.9638 36.6047 35.3122 36.3711 35.6052 36.0766L36.0754 35.606C36.1869 35.4944 36.2495 35.3431 36.2494 35.1853C36.2493 35.0276 36.1865 34.8763 36.0749 34.7649C35.9633 34.6534 35.812 34.5908 35.6542 34.5909C35.4965 34.591 35.3452 34.6538 35.2338 34.7654L34.7625 35.236C34.5799 35.4195 34.3628 35.565 34.1237 35.6642C33.8846 35.7633 33.6282 35.8141 33.3693 35.8136H27.039C26.7824 35.8129 26.5282 35.863 26.2911 35.9612C26.054 36.0594 25.8388 36.2036 25.6578 36.3855L23.5803 38.4633L17.6784 32.5449L22.3747 27.8483C22.4954 27.7271 22.6389 27.631 22.797 27.5656C22.955 27.5002 23.1245 27.4667 23.2955 27.4671H30.9748C31.215 27.467 31.4525 27.5173 31.672 27.6147C31.8915 27.712 32.0882 27.8543 32.2493 28.0323C32.4105 28.2104 32.5326 28.4202 32.6077 28.6483C32.6828 28.8764 32.7092 29.1177 32.6853 29.3566C32.6267 29.7921 32.4097 30.1906 32.0758 30.4762C31.7419 30.7618 31.3145 30.9143 30.8753 30.9047H27.124C26.9663 30.9047 26.815 30.9674 26.7035 31.0789C26.592 31.1904 26.5293 31.3416 26.5293 31.4993C26.5293 31.657 26.592 31.8083 26.7035 31.9198C26.815 32.0313 26.9663 32.094 27.124 32.094H32.3982C32.556 32.0939 32.7073 32.0312 32.8189 31.9197L36.7693 27.9693C37.5062 27.2342 38.4838 26.7898 39.5222 26.7178C40.5606 26.6459 41.5901 26.9511 42.4214 27.5775L39.8142 30.185C39.7554 30.2394 39.7083 30.3051 39.6755 30.3781C39.6428 30.4511 39.6251 30.53 39.6236 30.6101C39.6221 30.6901 39.6367 30.7696 39.6667 30.8438C39.6966 30.918 39.7412 30.9855 39.7978 31.042C39.8544 31.0986 39.9219 31.1432 39.9962 31.173C40.0704 31.2029 40.1499 31.2175 40.2299 31.2159C40.31 31.2143 40.3888 31.1966 40.4618 31.1638C40.5348 31.131 40.6005 31.0838 40.6548 31.025L43.7129 27.9669C43.8236 27.8554 43.8856 27.7045 43.8854 27.5473C43.8851 27.3902 43.8226 27.2395 43.7116 27.1283ZM21.5177 42.4164L13.551 34.4497L15.7175 32.2822L23.6853 40.2499L21.5177 42.4164Z" fill="#010815"/>
<path d="M28.0015 23.7075C29.1512 23.7075 30.2751 23.3667 31.2312 22.7279C32.1872 22.0892 32.9323 21.1814 33.3723 20.1192C33.8124 19.057 33.9276 17.8882 33.7033 16.7605C33.479 15.6329 32.9254 14.597 32.1124 13.784C31.2995 12.971 30.2637 12.4173 29.136 12.193C28.0084 11.9687 26.8395 12.0838 25.7773 12.5238C24.715 12.9637 23.8071 13.7088 23.1684 14.6648C22.5296 15.6207 22.1886 16.7446 22.1886 17.8944C22.1903 19.4355 22.8033 20.9131 23.893 22.0028C24.9828 23.0926 26.4603 23.7057 28.0015 23.7075ZM28.0015 13.2709C28.916 13.2708 29.81 13.542 30.5705 14.05C31.3309 14.5581 31.9236 15.2802 32.2736 16.1251C32.6236 16.97 32.7152 17.8997 32.5368 18.7967C32.3584 19.6937 31.9181 20.5176 31.2714 21.1643C30.6247 21.8109 29.8008 22.2513 28.9038 22.4297C28.0068 22.6081 27.0771 22.5165 26.2321 22.1665C25.3872 21.8165 24.6651 21.2238 24.157 20.4634C23.649 19.7029 23.3778 18.8089 23.3779 17.8944C23.3793 16.6686 23.8668 15.4934 24.7336 14.6266C25.6004 13.7598 26.7756 13.2722 28.0015 13.2709Z" fill="#010815"/>
</svg>
