<svg width="56" height="56" viewBox="0 0 56 56" fill="none" xmlns="http://www.w3.org/2000/svg">
<rect x="1" y="1" width="54" height="54" rx="27" stroke="white" stroke-opacity="0.16" stroke-width="2"/>
<path d="M34.5384 36.4575H31.3532C31.2039 36.4575 31.0607 36.3981 30.9551 36.2926C30.8495 36.187 30.7902 36.0438 30.7902 35.8944C30.7902 35.7451 30.8495 35.6019 30.9551 35.4963C31.0607 35.3907 31.2039 35.3314 31.3532 35.3314H34.5384C35.6464 35.3298 36.7085 34.889 37.4919 34.1054C38.2753 33.3219 38.7159 32.2596 38.7172 31.1517C38.7172 31.0023 38.7765 30.8591 38.8821 30.7535C38.9877 30.6479 39.1309 30.5886 39.2802 30.5886C39.4296 30.5886 39.5728 30.6479 39.6784 30.7535C39.7839 30.8591 39.8433 31.0023 39.8433 31.1517C39.8417 32.5582 39.2824 33.9067 38.2879 34.9014C37.2934 35.8961 35.945 36.4557 34.5384 36.4575Z" fill="#010815"/>
<path d="M33.2711 38.3746C33.1972 38.3747 33.124 38.3603 33.0557 38.332C32.9874 38.3037 32.9254 38.2622 32.8732 38.2099L30.9562 36.2927C30.9039 36.2404 30.8624 36.1783 30.8341 36.11C30.8057 36.0417 30.7912 35.9685 30.7912 35.8945C30.7912 35.8206 30.8057 35.7473 30.8341 35.679C30.8624 35.6107 30.9039 35.5486 30.9562 35.4964L32.8732 33.5791C32.9794 33.4766 33.1216 33.4199 33.2692 33.4212C33.4169 33.4225 33.5581 33.4817 33.6624 33.5861C33.7668 33.6905 33.826 33.8318 33.8272 33.9794C33.8285 34.127 33.7717 34.2692 33.6691 34.3754L32.1505 35.8944L33.6691 37.4136C33.7478 37.4923 33.8014 37.5926 33.8231 37.7018C33.8448 37.811 33.8337 37.9242 33.7911 38.027C33.7485 38.1299 33.6763 38.2178 33.5838 38.2797C33.4913 38.3415 33.3825 38.3746 33.2711 38.3746Z" fill="#010815"/>
<path d="M16.7253 25.4162C16.6514 25.4163 16.5781 25.4017 16.5098 25.3734C16.4415 25.3452 16.3794 25.3037 16.3271 25.2514C16.2748 25.1991 16.2333 25.137 16.2051 25.0687C16.1768 25.0004 16.1622 24.9271 16.1623 24.8532C16.1638 23.4465 16.7233 22.0978 17.718 21.1031C18.7127 20.1084 20.0614 19.5489 21.4681 19.5474H24.6533C24.8026 19.5474 24.9458 19.6067 25.0514 19.7123C25.157 19.8179 25.2163 19.9611 25.2163 20.1104C25.2163 20.2597 25.157 20.4029 25.0514 20.5085C24.9458 20.6141 24.8026 20.6735 24.6533 20.6735H21.4681C20.3602 20.6751 19.2981 21.116 18.5148 21.8995C17.7315 22.6831 17.2909 23.7453 17.2897 24.8532C17.2897 24.9272 17.2751 25.0006 17.2468 25.069C17.2184 25.1374 17.1768 25.1995 17.1244 25.2518C17.072 25.3042 17.0097 25.3456 16.9412 25.3738C16.8728 25.402 16.7994 25.4164 16.7253 25.4162Z" fill="#010815"/>
<path d="M22.7357 22.5908C22.6243 22.5906 22.5156 22.5575 22.4231 22.4956C22.3305 22.4337 22.2584 22.3458 22.2159 22.2429C22.1733 22.1401 22.1621 22.0269 22.1838 21.9177C22.2055 21.8085 22.259 21.7082 22.3377 21.6294L23.8563 20.1105L22.3377 18.5912C22.2351 18.4851 22.1783 18.3429 22.1796 18.1952C22.1808 18.0476 22.24 17.9064 22.3444 17.802C22.4487 17.6975 22.5899 17.6383 22.7376 17.637C22.8852 17.6357 23.0274 17.6924 23.1336 17.7949L25.0506 19.7122C25.1029 19.7644 25.1444 19.8265 25.1727 19.8948C25.2011 19.9631 25.2156 20.0364 25.2156 20.1103C25.2156 20.1843 25.2011 20.2575 25.1727 20.3258C25.1444 20.3942 25.1029 20.4562 25.0506 20.5085L23.1336 22.4257C23.0815 22.4781 23.0194 22.5197 22.9511 22.548C22.8828 22.5763 22.8096 22.5909 22.7357 22.5908Z" fill="#010815"/>
<path d="M28.3577 36.6959C29.3215 32.6566 26.8282 28.6009 22.7889 27.6372C18.7497 26.6735 14.6939 29.1667 13.7302 33.206C12.7665 37.2453 15.2598 41.301 19.2991 42.2647C23.3383 43.2284 27.394 40.7352 28.3577 36.6959Z" fill="#00D094"/>
<path d="M42.3308 22.7523C43.2754 18.7085 40.763 14.6646 36.7192 13.72C32.6754 12.7754 28.6315 15.2878 27.687 19.3316C26.7424 23.3754 29.2548 27.4193 33.2985 28.3639C37.3423 29.3085 41.3862 26.7961 42.3308 22.7523Z" fill="#00D094"/>
<path d="M37.3903 20.8839C37.504 20.8808 37.612 20.8334 37.6913 20.7519C37.7707 20.6704 37.815 20.5612 37.815 20.4474C37.815 20.3337 37.7707 20.2244 37.6913 20.1429C37.612 20.0614 37.504 20.0141 37.3903 20.011H36.0631L37.6988 18.3753C37.7394 18.3348 37.7715 18.2867 37.7934 18.2337C37.8154 18.1808 37.8266 18.124 37.8266 18.0667C37.8266 18.0094 37.8154 17.9527 37.7934 17.8997C37.7715 17.8468 37.7394 17.7987 37.6988 17.7582C37.6583 17.7177 37.6102 17.6855 37.5573 17.6636C37.5043 17.6417 37.4476 17.6304 37.3903 17.6304C37.333 17.6304 37.2763 17.6417 37.2233 17.6636C37.1704 17.6855 37.1223 17.7177 37.0817 17.7582L35.0094 19.8305L32.9374 17.7585C32.8969 17.718 32.8488 17.6858 32.7959 17.6639C32.7429 17.642 32.6862 17.6307 32.6289 17.6307C32.5716 17.6307 32.5148 17.642 32.4619 17.6639C32.409 17.6858 32.3609 17.718 32.3203 17.7585C32.2798 17.799 32.2477 17.8471 32.2258 17.9001C32.2038 17.953 32.1925 18.0097 32.1925 18.067C32.1925 18.1243 32.2038 18.1811 32.2258 18.234C32.2477 18.287 32.2798 18.3351 32.3203 18.3756L33.9561 20.011H32.6289C32.5152 20.0141 32.4072 20.0614 32.3279 20.1429C32.2485 20.2244 32.2041 20.3337 32.2041 20.4474C32.2041 20.5612 32.2485 20.6704 32.3279 20.7519C32.4072 20.8334 32.5152 20.8808 32.6289 20.8839H34.5732V21.6947H32.6289C32.5132 21.6947 32.4022 21.7406 32.3204 21.8224C32.2386 21.9043 32.1926 22.0152 32.1926 22.1309C32.1926 22.2466 32.2386 22.3576 32.3204 22.4394C32.4022 22.5212 32.5132 22.5672 32.6289 22.5672H34.5732V24.6727C34.5716 24.731 34.5817 24.789 34.6029 24.8434C34.6241 24.8977 34.656 24.9472 34.6967 24.989C34.7374 25.0308 34.786 25.0641 34.8398 25.0867C34.8935 25.1094 34.9513 25.1211 35.0096 25.1211C35.0679 25.1211 35.1257 25.1094 35.1794 25.0867C35.2331 25.0641 35.2818 25.0308 35.3225 24.989C35.3632 24.9472 35.3951 24.8977 35.4163 24.8434C35.4375 24.789 35.4476 24.731 35.446 24.6727V22.5672H37.3903C37.506 22.5672 37.617 22.5212 37.6988 22.4394C37.7806 22.3576 37.8266 22.2466 37.8266 22.1309C37.8266 22.0152 37.7806 21.9043 37.6988 21.8224C37.617 21.7406 37.506 21.6947 37.3903 21.6947H35.446V20.8839H37.3903Z" fill="#010815"/>
<path d="M23.3902 36.3151C23.3902 35.2373 22.5858 34.8049 21.4112 34.5134V32.5614C21.7586 32.6478 22.0863 32.8 22.3764 33.0099C22.4676 33.0735 22.5798 33.0994 22.6897 33.0821C22.7995 33.0647 22.8984 33.0055 22.9655 32.9169L22.9684 32.9131C23.0038 32.8663 23.0294 32.8129 23.0436 32.756C23.0577 32.6991 23.0602 32.6399 23.0509 32.582C23.0415 32.5241 23.0205 32.4687 22.9891 32.4191C22.9578 32.3696 22.9167 32.3269 22.8683 32.2937C22.4372 31.9866 21.9367 31.7911 21.4115 31.7246V31.5849C21.4115 31.528 21.4003 31.4717 21.3785 31.4192C21.3568 31.3667 21.3249 31.3189 21.2847 31.2787C21.2444 31.2385 21.1967 31.2066 21.1442 31.1848C21.0916 31.1631 21.0353 31.1519 20.9784 31.1519C20.9216 31.1519 20.8653 31.1631 20.8127 31.1848C20.7602 31.2066 20.7124 31.2385 20.6722 31.2787C20.632 31.3189 20.6001 31.3667 20.5783 31.4192C20.5566 31.4717 20.5454 31.528 20.5454 31.5849V31.7155C19.4936 31.8674 18.7658 32.5974 18.7658 33.5327C18.7658 34.5584 19.4676 34.9715 20.5454 35.2627V37.2984C20.1318 37.2076 19.7436 37.0258 19.409 36.7662C19.3199 36.6962 19.2069 36.6637 19.0941 36.6757C18.9814 36.6877 18.8778 36.7433 18.8054 36.8306L18.7958 36.8425C18.759 36.888 18.7318 36.9405 18.7158 36.9969C18.6998 37.0532 18.6954 37.1122 18.7029 37.1703C18.7104 37.2284 18.7295 37.2844 18.7592 37.3348C18.7888 37.3853 18.8284 37.4293 18.8756 37.4641C19.3644 37.8298 19.9397 38.0626 20.5454 38.1397V38.3151C20.5454 38.3719 20.5566 38.4282 20.5783 38.4808C20.6001 38.5333 20.632 38.5811 20.6722 38.6213C20.7124 38.6615 20.7602 38.6934 20.8127 38.7152C20.8653 38.7369 20.9216 38.7481 20.9784 38.7481C21.0353 38.7481 21.0916 38.7369 21.1442 38.7152C21.1967 38.6934 21.2444 38.6615 21.2847 38.6213C21.3249 38.5811 21.3568 38.5333 21.3785 38.4808C21.4003 38.4282 21.4115 38.3719 21.4115 38.3151V38.159C22.6978 38.0612 23.3902 37.2951 23.3902 36.3151ZM19.705 33.4516C19.7238 33.228 19.8166 33.0171 19.9687 32.8522C20.1209 32.6872 20.3237 32.5778 20.5451 32.5411V34.2846C19.9926 34.0958 19.705 33.877 19.705 33.4507V33.4516ZM21.4102 37.3492V35.4831C22.1116 35.6807 22.4591 35.9184 22.4591 36.4071C22.46 36.8505 22.1042 37.2688 21.4112 37.3482L21.4102 37.3492Z" fill="#010815"/>
<path d="M39.281 30.5886C39.2071 30.5886 39.1338 30.6031 39.0655 30.6314C38.9972 30.6597 38.9351 30.7011 38.8828 30.7534C38.8305 30.8057 38.789 30.8678 38.7607 30.9361C38.7325 31.0045 38.7179 31.0777 38.718 31.1517C38.7167 32.2599 38.2759 33.3223 37.4922 34.1059C36.7086 34.8895 35.6461 35.3302 34.5379 35.3314H32.713L33.6689 34.3755C33.7715 34.2693 33.8283 34.1271 33.827 33.9795C33.8258 33.8319 33.7666 33.6906 33.6622 33.5862C33.5579 33.4818 33.4166 33.4226 33.269 33.4212C33.1214 33.4199 32.9792 33.4766 32.8729 33.5792L30.9567 35.4955C30.9303 35.5222 30.9065 35.5514 30.8856 35.5827C30.8775 35.5949 30.8721 35.6081 30.865 35.6206C30.853 35.6395 30.8422 35.6592 30.8328 35.6795C30.8261 35.6973 30.8205 35.7155 30.8157 35.7339C30.8106 35.7506 30.8042 35.7661 30.8006 35.7844C30.7865 35.8572 30.7865 35.932 30.8006 36.0048C30.8042 36.0222 30.8106 36.037 30.8157 36.055C30.8205 36.0735 30.8261 36.0918 30.8328 36.1097C30.8418 36.1298 30.852 36.1493 30.8634 36.1682C30.8704 36.1808 30.8759 36.194 30.8843 36.2062C30.905 36.2376 30.9288 36.2668 30.9554 36.2934L32.8717 38.21C32.9779 38.3125 33.1201 38.3692 33.2677 38.3679C33.4154 38.3666 33.5566 38.3074 33.6609 38.203C33.7653 38.0986 33.8245 37.9573 33.8257 37.8097C33.827 37.6621 33.7702 37.5198 33.6676 37.4137L32.713 36.4575H34.5379C35.9445 36.4557 37.2929 35.8961 38.2874 34.9014C39.2819 33.9067 39.8412 32.5582 39.8428 31.1517C39.8428 31.0026 39.7836 30.8595 39.6783 30.754C39.573 30.6484 39.4301 30.589 39.281 30.5886Z" fill="#010815"/>
<path d="M16.725 25.4165C16.7989 25.4165 16.8722 25.402 16.9405 25.3737C17.0088 25.3454 17.0709 25.3039 17.1232 25.2516C17.1755 25.1993 17.217 25.1373 17.2453 25.0689C17.2735 25.0006 17.2881 24.9274 17.288 24.8534C17.2893 23.7453 17.7301 22.6829 18.5137 21.8993C19.2972 21.1157 20.3596 20.675 21.4677 20.6737H23.293L22.3371 21.6296C22.2833 21.6815 22.2404 21.7436 22.2109 21.8123C22.1813 21.881 22.1658 21.9549 22.1651 22.0296C22.1645 22.1044 22.1787 22.1786 22.207 22.2478C22.2353 22.317 22.2771 22.3798 22.3299 22.4327C22.3828 22.4856 22.4457 22.5274 22.5148 22.5557C22.584 22.584 22.6582 22.5983 22.7329 22.5977C22.8077 22.597 22.8816 22.5815 22.9503 22.552C23.019 22.5225 23.0811 22.4797 23.1331 22.4259L25.0493 20.5096C25.0757 20.4828 25.0995 20.4537 25.1204 20.4224C25.1285 20.4105 25.134 20.3973 25.141 20.3848C25.153 20.3658 25.1638 20.346 25.1732 20.3256C25.1799 20.3079 25.1856 20.2898 25.1903 20.2715C25.1961 20.2548 25.201 20.2379 25.2051 20.2207C25.2195 20.1479 25.2195 20.073 25.2051 20.0003C25.201 19.983 25.1959 19.9659 25.1899 19.9491C25.1849 19.9307 25.1789 19.9126 25.1719 19.8948C25.1625 19.8743 25.1518 19.8545 25.1397 19.8356C25.1336 19.8228 25.1269 19.8103 25.1195 19.7982C25.0987 19.7669 25.0749 19.7377 25.0484 19.7111L23.1321 17.7944C23.0259 17.6919 22.8836 17.6352 22.736 17.6365C22.5884 17.6378 22.4472 17.6971 22.3428 17.8015C22.2384 17.9059 22.1793 18.0471 22.178 18.1947C22.1768 18.3424 22.2335 18.4846 22.3361 18.5908L23.292 19.547H21.4677C20.0611 19.5488 18.7127 20.1086 17.7183 21.1034C16.7238 22.0982 16.1646 23.4468 16.1632 24.8534C16.1632 25.0025 16.2223 25.1456 16.3276 25.2512C16.4329 25.3568 16.5759 25.4162 16.725 25.4165Z" fill="#010815"/>
<path d="M21.0436 26.8694C19.7952 26.8695 18.5637 27.1588 17.4458 27.7146C16.328 28.2704 15.3541 29.0777 14.6005 30.073C13.8469 31.0683 13.3342 32.2247 13.1025 33.4515C12.8708 34.6782 12.9264 35.9419 13.265 37.1436C13.6036 38.3452 14.216 39.4521 15.0541 40.3773C15.8923 41.3026 16.9333 42.0211 18.0957 42.4766C19.2581 42.932 20.5102 43.112 21.7538 43.0024C22.9974 42.8927 24.1987 42.4965 25.2635 41.8447C25.3265 41.8061 25.3813 41.7554 25.4247 41.6956C25.4681 41.6357 25.4993 41.568 25.5165 41.4961C25.5337 41.4242 25.5366 41.3496 25.525 41.2766C25.5134 41.2036 25.4875 41.1336 25.4488 41.0706C25.4102 41.0076 25.3595 40.9529 25.2996 40.9095C25.2398 40.8661 25.172 40.8349 25.1002 40.8177C25.0283 40.8004 24.9537 40.7976 24.8807 40.8092C24.8077 40.8208 24.7377 40.8467 24.6747 40.8853C23.1981 41.7901 21.4371 42.1116 19.7359 41.787C18.0348 41.4625 16.5159 40.5152 15.4761 39.1303C14.4362 37.7455 13.9502 36.0226 14.1131 34.2985C14.2759 32.5743 15.0759 30.9729 16.3566 29.8072C17.6374 28.6415 19.3068 27.9954 21.0386 27.9951C22.7704 27.9948 24.44 28.6403 25.7212 29.8055C27.0024 30.9707 27.8029 32.5719 27.9664 34.2959C28.1299 36.02 27.6445 37.7431 26.6052 39.1283C26.5156 39.2478 26.4771 39.3979 26.4982 39.5457C26.5193 39.6936 26.5983 39.827 26.7178 39.9166C26.8372 40.0062 26.9874 40.0446 27.1352 40.0235C27.283 40.0024 27.4164 39.9234 27.506 39.804C28.4071 38.6034 28.956 37.1756 29.0913 35.6806C29.2266 34.1856 28.9429 32.6824 28.272 31.3396C27.6011 29.9967 26.5694 28.8673 25.2927 28.0777C24.016 27.2882 22.5447 26.8698 21.0436 26.8694Z" fill="#010815"/>
<path d="M41.6304 24.6178C41.5029 24.5406 41.3501 24.5171 41.2053 24.5524C41.0605 24.5878 40.9357 24.6791 40.8582 24.8064C40.8 24.9029 40.7401 24.9955 40.6777 25.0876C40.6342 25.1486 40.6034 25.2178 40.587 25.2909C40.5706 25.3641 40.569 25.4397 40.5823 25.5135C40.5955 25.5873 40.6234 25.6577 40.6642 25.7206C40.705 25.7834 40.7579 25.8375 40.8199 25.8797C40.8819 25.9218 40.9517 25.9511 41.0252 25.966C41.0987 25.9808 41.1744 25.9808 41.2479 25.9659C41.3213 25.9511 41.3911 25.9217 41.4531 25.8796C41.5151 25.8374 41.568 25.7833 41.6088 25.7204C41.6822 25.6132 41.7526 25.5036 41.8202 25.3916C41.8586 25.3283 41.8841 25.2581 41.8954 25.185C41.9066 25.1119 41.9033 25.0372 41.8857 24.9654C41.868 24.8935 41.8364 24.8258 41.7926 24.7662C41.7488 24.7065 41.6937 24.6561 41.6304 24.6178Z" fill="#010815"/>
<path d="M35.0085 12.9604C33.7663 12.9608 32.5408 13.2475 31.4273 13.7983C30.3139 14.3491 29.3423 15.1491 28.5882 16.1363C27.8341 17.1235 27.3177 18.2712 27.0791 19.4903C26.8405 20.7095 26.8862 21.9672 27.2125 23.1658C27.5389 24.3644 28.1372 25.4717 28.9609 26.4016C29.7846 27.3315 30.8116 28.059 31.9621 28.5276C33.1125 28.9962 34.3556 29.1933 35.5946 29.1035C36.8336 29.0138 38.0352 28.6396 39.1062 28.0101C39.2348 27.9343 39.3281 27.8104 39.3654 27.6658C39.4027 27.5212 39.381 27.3677 39.3052 27.2391C39.2293 27.1104 39.1055 27.0172 38.9609 26.9799C38.8163 26.9426 38.6628 26.9642 38.5341 27.0401C37.1667 27.8426 35.5659 28.1531 33.9976 27.9199C32.4293 27.6868 30.988 26.9241 29.9131 25.7586C28.8382 24.593 28.1945 23.0948 28.0888 21.5128C27.9832 19.9308 28.422 18.3603 29.3324 17.0622C30.2428 15.764 31.5699 14.8165 33.0932 14.3769C34.6166 13.9373 36.2445 14.0322 37.7065 14.6458C39.1685 15.2593 40.3765 16.3547 41.1299 17.7497C41.8833 19.1448 42.1367 20.7557 41.848 22.3147C41.8208 22.4616 41.853 22.6132 41.9375 22.7363C42.0221 22.8595 42.1521 22.9439 42.299 22.9712C42.4458 22.9985 42.5975 22.9663 42.7206 22.8817C42.8437 22.7972 42.9282 22.6671 42.9555 22.5203C43.1711 21.3538 43.1276 20.1542 42.828 19.0064C42.5284 17.8586 41.98 16.7908 41.2217 15.8786C40.4633 14.9664 39.5137 14.2321 38.44 13.7278C37.3663 13.2235 36.1948 12.9615 35.0085 12.9604Z" fill="#010815"/>
</svg>
