<svg width="100" height="100" viewBox="0 0 100 100" fill="none" xmlns="http://www.w3.org/2000/svg">
<path d="M50 100C77.6142 100 100 77.6142 100 50C100 22.3858 77.6142 0 50 0C22.3858 0 0 22.3858 0 50C0 77.6142 22.3858 100 50 100Z" fill="#46594A"/>
<path d="M49.9656 51.7281L28.9625 49.925L49.9625 38.0437V51.7281H49.9656ZM49.9656 65.6656V87.3531C42.6625 75.9844 34.6125 63.4719 28.125 53.3437C35.7812 57.6562 43.775 62.1656 49.9656 65.6687V65.6656ZM49.9656 34.2031L28.125 46.3906L49.9656 12.5V34.2031Z" fill="white"/>
<path d="M70.9688 49.925L49.9657 51.7281V38.0437L70.9657 49.925H70.9688ZM49.9657 65.6688C56.1532 62.1688 64.1438 57.6562 71.8032 53.3438C65.3157 63.475 57.2657 75.9875 49.9657 87.35V65.6688ZM49.9657 34.2031V12.5L71.8032 46.3906L49.9657 34.2031Z" fill="white" fill-opacity="0.601"/>
<path opacity="0.2" fill-rule="evenodd" clip-rule="evenodd" d="M49.9657 51.7283L70.9657 49.9252L49.9657 61.722V51.7283Z" fill="white"/>
<path opacity="0.603" fill-rule="evenodd" clip-rule="evenodd" d="M49.9624 51.7283L28.9593 49.9252L49.9624 61.722V51.7283Z" fill="white"/>
</svg>
