<svg width="220" height="234" viewBox="0 0 220 234" fill="none" xmlns="http://www.w3.org/2000/svg">
<rect x="103.584" width="139.299" height="188.439" rx="5" transform="rotate(33.3085 103.584 0)" fill="white"/>
<path d="M192.16 80.7503C192.87 79.1066 193.078 77.3251 193.254 75.5598L193.506 76.4855C193.648 76.9618 193.546 77.7435 193.483 78.241C193.168 80.7265 191.698 83.5011 190.393 85.6241C189.451 87.1556 188.101 88.5691 186.831 89.8217L186.282 89.9084C188.493 87.0764 191.253 84.384 192.16 80.7503Z" fill="#E0DDE0"/>
<path d="M185.193 55.8611C186.475 57.01 187.523 58.2422 188.634 59.5542C189.432 60.4961 190.297 61.4948 190.884 62.5878C191.692 64.0935 192.198 65.6916 192.71 67.3126C193.111 68.5823 193.5 69.7977 193.571 71.1388C193.611 71.9 193.583 72.6112 193.403 73.3484L193.319 73.9897C193.183 70.8591 192.315 67.0088 190.901 64.1906C189.715 61.8243 187.982 59.685 186.207 57.7458C186.099 57.2519 186.019 57.0617 185.64 56.7239L185.54 56.6386C185.491 56.3362 185.344 56.1217 185.193 55.8611Z" fill="#E0DDE0"/>
<path d="M149.185 64.0476L149.224 63.929C150.139 61.264 151.196 58.8541 153.066 56.7135C153.68 56.0112 154.406 55.4225 155.092 54.7955C156.127 53.8493 157.298 52.7983 158.56 52.1836C159.891 51.5356 161.317 50.7925 162.716 50.3179C164.896 49.579 168.27 49.3477 170.555 49.6165L170.118 50.1115C164.32 49.9085 158.972 51.8634 154.734 55.868C152.254 58.2114 150.401 61.4928 149.444 64.7812C149.161 65.7536 149.025 66.7722 148.765 67.7521C148.664 67.0082 148.585 65.7357 149.007 65.0947C149.147 64.8833 149.113 64.8626 149.114 64.6089C149.303 64.3236 149.244 64.3605 149.185 64.0476Z" fill="#E0DDE0"/>
<path d="M73.2378 50.2502C75.0768 50.839 76.6552 52.1087 78.2397 53.1874C80.739 54.4974 82.827 56.1782 85.1898 57.6714L92.2464 62.1553C94.3136 63.4203 96.7757 64.5362 98.5478 66.2176L98.3411 66.3518C98.0738 66.5224 98.1868 66.4645 97.9422 66.5658L97.8087 66.7465C97.5345 66.2319 96.9769 65.9175 96.5023 65.6048C95.0963 64.6786 93.5811 63.9394 92.1457 63.0676C90.6355 62.1509 89.2392 61.0302 87.7665 60.0516C86.7182 59.3547 85.5903 58.8079 84.5303 58.1281C82.3183 56.7087 80.336 54.932 77.9505 53.7926C76.5866 52.9323 74.8195 52.067 73.6208 51.0115C73.4093 50.825 73.3257 50.5103 73.2378 50.2502Z" fill="#E0DDE0"/>
<path d="M47.7524 77.9843C47.9814 77.3282 48.433 76.8044 48.6733 76.1647C48.9642 75.3906 49.4177 74.7449 49.8568 74.049L53.2029 69.1539L58.1471 61.3351L60.3914 58.1536C61.7949 56.0437 62.9648 53.8955 64.5412 51.8836C65.1122 51.1548 65.7289 50.643 66.5063 50.1521C66.8329 49.946 67.2232 49.6708 67.5937 49.5679C68.2393 49.3883 70.1063 49.4135 70.7508 49.5584C68.9737 49.651 67.9703 49.8962 66.4938 50.9355L66.2859 51.0801C65.3819 51.7186 64.8654 52.514 64.229 53.4053L61.4261 57.7592C60.2898 59.5153 58.871 61.148 57.7641 62.9088L54.7244 68.0176L49.4396 75.8758C48.8113 76.7445 48.708 77.3142 47.7524 77.9843Z" fill="#E0DDE0"/>
<path d="M142.79 76.8372C143.358 77.9782 143.589 79.0944 143.967 80.2911C144.288 81.3086 144.721 82.3294 145.165 83.2965C146.07 85.2654 147.33 86.928 148.748 88.5437C151.542 91.7261 154.664 94.2918 158.725 95.6281L162.426 96.4833C163.015 96.598 163.269 96.4232 163.682 96.9107C163.66 97.0737 163.689 97.2524 163.617 97.4001C163.386 97.8716 162.464 98.4841 162.066 98.8451L157.615 103.161L153.58 107.233C152.879 107.942 152.179 108.762 151.402 109.385C150.256 110.304 148.864 111.233 147.517 111.802L147.334 111.722C147.063 111.61 147.172 111.645 146.867 111.605C148.326 110.92 149.746 110.064 151.007 109.054C152.68 107.713 154.176 105.906 155.708 104.389L160.973 99.2289C161.652 98.5417 162.521 97.835 162.99 96.9954L162.851 96.8088L162.483 96.8452C161.736 96.8695 160.893 96.6754 160.156 96.5364C156.099 95.7704 152.754 93.5118 149.815 90.6871C146.258 87.2687 142.911 81.9471 142.79 76.8372Z" fill="#E0DDE0"/>
<path d="M99.6465 179.297C99.9621 179.267 100.268 179.271 100.564 179.401C102.068 180.063 103.44 181.046 104.83 181.913L112.672 186.911C113.78 187.614 115.124 188.147 116.125 188.993C116.386 189.213 116.567 189.523 116.707 189.83L112.9 195.097L99.9416 186.925L99.8064 186.857C99.913 186.211 99.8278 185.492 99.7967 184.84C99.7331 183.508 99.6429 182.195 99.7489 180.863L99.6465 179.297Z" fill="#E0DDE0"/>
<path d="M98.7971 155.287C99.1402 155.36 99.4358 155.397 99.7094 155.637L99.864 155.6C100.329 155.512 100.56 155.779 100.977 155.919C101.573 156.12 102.119 156.557 102.651 156.889L105.837 158.861L111.199 162.185L115.488 165.121L122.432 169.591C124.31 170.757 126.441 171.904 127.986 173.502L124.346 178.835C123.995 178.877 119.393 175.709 118.721 175.28L105.164 166.726L101.158 164.049C100.607 163.686 99.879 163.101 99.2501 162.937C99.234 165.211 99.4324 167.662 99.1968 169.91L98.7971 155.287Z" fill="#E0DDE0"/>
<path d="M79.8434 125.841C79.6938 125.583 79.3657 125.155 79.3016 124.878C79.1595 124.265 79.4126 123.369 79.5703 122.768C79.7815 121.962 80.3005 121.456 81.0027 121.062C81.6471 120.701 82.3466 120.557 83.0646 120.814C84.3543 121.277 85.6274 122.273 86.769 123.023L90.5206 125.395L107.274 135.89L111.159 138.58C112.152 139.214 113.23 139.716 114.238 140.33L121.84 145.057L128.819 149.728L131.84 151.48L135.998 154.287C137.308 155.15 138.64 155.97 139.854 156.97C139.783 157.17 139.793 157.218 139.625 157.358L136.044 162.291L119.482 151.692L109.216 145.296L97.9822 137.977L86.3188 130.681C84.7376 129.696 83.0884 128.795 81.565 127.72C80.8353 127.205 80.293 126.621 79.8434 125.841Z" fill="#E0DDE0"/>
<path d="M90.2541 108.648L89.8545 108.587L89.8001 108.365C89.6863 107.937 89.7895 108.252 89.6433 107.973C89.4865 107.673 89.5675 107.024 89.575 106.673C90.1812 105.637 90.8842 104.672 92.0069 104.177L92.187 104.094C92.9341 103.769 93.7568 103.84 94.4945 104.154C96.0438 104.811 97.394 105.941 98.832 106.815L113.105 115.983L123.092 122.33L127.99 125.248L141.313 134.198C144.497 136.354 147.894 138.44 150.916 140.809C150.875 141.086 150.92 141.054 150.699 141.268L147.155 145.855C145.426 145.058 143.913 143.748 142.328 142.702L131.381 135.547L125.496 131.963L101.181 116.378L91.8986 110.65C91.1342 110.124 90.4321 109.618 90.2541 108.648Z" fill="#E0DDE0"/>
<path d="M146.867 111.605C144.691 112.705 141.946 112.966 139.552 112.748C138.916 112.69 138.292 112.47 137.664 112.432C137.218 112.405 136.918 112.391 136.517 112.167C136.323 112.059 136.41 112.086 136.179 112.039C135.833 111.97 135.507 111.828 135.172 111.715C131.555 110.493 128.453 107.753 126.259 104.665C122.975 100.045 122.231 94.3805 123.176 88.9009L123.22 88.6607C123.335 87.9822 123.726 87.4505 124.004 86.8341C124.415 85.9207 124.746 84.9986 125.227 84.1107C125.645 83.336 126.171 82.6667 126.651 81.9356C127.078 81.2851 127.4 80.5817 128.01 80.0789C128.858 79.3797 129.545 78.5558 130.443 77.8835C131.784 76.8803 133.224 76.2482 134.619 75.3664L143.073 69.575C142.728 72.0047 142.624 74.3898 142.79 76.8375C142.911 81.9474 146.258 87.269 149.815 90.6874C152.754 93.5121 156.1 95.7708 160.156 96.5368C160.893 96.6758 161.736 96.8699 162.483 96.8455L162.851 96.8092L162.99 96.9957C162.521 97.8353 161.652 98.542 160.973 99.2292L155.708 104.39C154.176 105.907 152.68 107.713 151.007 109.054C149.746 110.064 148.326 110.921 146.867 111.605Z" fill="url(#paint0_linear_1_241)"/>
<path d="M170.554 49.6162C174.246 49.81 178.408 51.127 181.549 53.1032C182.834 53.9117 184.015 54.9045 185.193 55.861C185.344 56.1217 185.491 56.3362 185.54 56.6385L185.64 56.7238C186.019 57.0617 186.099 57.2518 186.207 57.7457C187.982 59.685 189.715 61.8242 190.901 64.1905C192.315 67.0088 193.183 70.859 193.319 73.9897L193.254 75.5595C193.078 77.3248 192.87 79.1063 192.16 80.7499C191.253 84.3837 188.493 87.0761 186.282 89.9081C183.658 92.3798 180.514 93.9955 177.006 94.7777C172.498 95.7829 167.522 95.084 163.328 93.1567C161.715 92.4153 160.118 91.3811 158.623 90.4213L158.063 90.0289C157.028 89.2081 156.281 88.3069 155.417 87.3245C152.182 83.6412 149.495 78.9404 148.895 73.9897C148.41 72.0784 148.633 69.718 148.764 67.7519C149.025 66.7719 149.16 65.7533 149.443 64.7809C150.401 61.4925 152.254 58.2111 154.733 55.8677C158.971 51.8631 164.32 49.9082 170.117 50.1112L170.554 49.6162Z" fill="#42B146"/>
<path d="M170.555 49.6162C174.247 49.81 178.409 51.127 181.55 53.1032C182.834 53.9117 184.016 54.9045 185.193 55.861C185.345 56.1217 185.491 56.3362 185.54 56.6385L185.64 56.7238C186.02 57.0617 186.1 57.2518 186.207 57.7457C185.279 56.9534 184.437 56.0635 183.487 55.2947C181.105 53.3691 177.986 51.6598 175.01 50.8946C173.424 50.4866 171.742 50.3062 170.118 50.1112L170.555 49.6162Z" fill="#BBC0C4"/>
<path d="M32.2945 101.454C33.9701 98.4786 36.0023 95.7691 37.8222 92.8896L44.133 83.1721C45.3207 81.3892 46.2518 79.5475 47.7517 77.9839C46.7822 80.8584 44.5843 83.635 42.9157 86.1436L37.2343 95.1091C36.014 97.0011 34.5199 98.9048 33.4861 100.9L28.4969 108.217L26.9865 110.63L24.1996 114.935L17.5621 125.185L1.02997 151.227C0.749092 153.07 0.464054 154.926 0.923395 156.766L0.979179 156.998L1.6056 158.834C2.69609 160.797 4.01111 162.311 5.81877 163.653L9.64809 166.127C10.2676 166.526 11.068 166.921 11.5729 167.459L15.6531 169.984L21.8466 173.952L28.7511 178.327L60.3365 198.354L62.6776 199.86L69.3343 203.979L95.6613 220.708L102.217 224.727C102.854 225.136 103.827 225.639 104.338 226.172C105.754 227.057 107.092 228.104 108.648 228.715C107.942 227.76 106.837 226.663 106.502 225.528L106.469 225.399C107.559 226.472 108.291 227.931 109.468 228.936C110.17 229.342 110.916 229.913 111.569 230.402C111.98 230.71 112.381 231.128 112.89 231.223L112.861 230.944L112.379 230.341C111.996 229.852 111.995 229.392 111.958 228.792L111.943 228.542C111.962 227.842 111.94 227.103 112.08 226.416L112.113 226.259C112.249 225.548 112.455 224.928 112.709 224.254C113.637 221.815 115.17 219.337 116.781 217.288L121.185 210.876C121.631 209.589 122.395 208.513 123.146 207.392C123.732 206.516 124.223 205.736 124.97 204.982L134.303 190.76L135.805 188.505C135.935 188.295 136.139 187.956 136.327 187.804C136.628 187.562 136.515 187.8 136.622 187.454C136.698 187.207 136.752 187.057 136.894 186.834L137.038 186.615C138.448 184.209 140.135 181.884 141.718 179.581L145.1 174.504L149.574 168.169L154.616 160.589C155.695 158.958 156.716 157.136 158.134 155.778C158.68 154.717 159.44 153.6 160.17 152.66L171.036 137.041L177.817 127.546C178.496 126.151 179.95 124.759 180.892 123.492C181.509 122.663 181.999 121.759 182.626 120.932L191.108 110.107L196.628 102.857C197.307 102.006 197.867 101.077 198.753 100.425L199.488 100.963C199.473 101.281 199.407 101.5 199.245 101.778C198.875 102.412 198.269 103.032 197.815 103.62L193.925 108.506L186.261 118.354L183.39 121.957C182.903 122.567 182.479 123.27 181.965 123.85L182.368 124.342C184.208 125.805 185.187 126.667 185.946 129.022C186.988 132.251 186.089 134.895 184.643 137.794C184.408 138.265 184.145 138.629 183.808 139.03C183.181 139.773 182.7 140.682 182.18 141.503L179.67 145.599L175.867 151.345C174.799 152.946 173.747 154.693 172.557 156.197L165.086 167.655C164.039 169.226 162.69 170.814 161.902 172.525C161.608 173.165 161.095 173.858 160.615 174.375L138.14 208.343L136.472 210.858C135.178 212.857 133.909 215.404 132.309 217.154L130.008 220.526C129.596 221.168 129.23 221.882 128.745 222.468C128.212 223.523 127.497 224.439 126.848 225.42C125.013 228.194 122.922 231.399 119.602 232.508C118.991 232.712 118.406 232.779 117.774 232.887C115.056 233.349 111.819 231.807 109.664 230.219C109.494 230.095 109.544 230.15 109.465 230.045L102.385 225.541L69.2586 204.694L61.712 200.045L60.3279 199.142L27.6237 178.39L20.5451 173.884L16.4033 171.207L10.4186 167.442C9.06996 166.825 7.70054 165.725 6.44047 164.922L4.8579 163.75C3.54621 162.783 2.48099 161.662 1.59617 160.288C0.967524 159.41 0.465718 158.261 0.25506 157.207L0.209542 156.969C-0.0638421 155.576 -0.137945 153.629 0.410765 152.286C0.699414 151.579 0.725501 150.877 1.01276 150.155C1.12378 149.661 1.32778 149.161 1.57535 148.72C2.02526 147.919 2.63281 147.201 3.13406 146.43L7.6034 139.524L13.5535 130.257C14.9454 128.082 16.2226 125.948 17.7777 123.873L24.6367 113.154L25.8188 111.252L28.7869 106.697C29.6159 104.881 31.2327 103.166 32.2945 101.454Z" fill="#E0DDE0"/>
<path d="M181.825 124.492L182.003 124.696C182.204 124.919 182.411 125.063 182.656 125.232C184.226 126.313 185.275 128.58 185.616 130.421L185.674 130.763C185.687 131.605 185.765 132.547 185.656 133.379C185.551 134.175 185.215 134.917 184.926 135.658C184.484 136.791 184.099 138.05 183.267 138.978C183.102 139.161 182.869 139.27 182.697 139.444C182.128 140.021 181.514 141.144 181.109 141.864C180.792 142.426 180.655 142.968 180.263 143.476C179.645 144.28 179.245 145.252 178.653 146.063L174.347 152.47C173.876 153.206 173.168 154.01 172.85 154.814C171.616 156.365 170.723 158.098 169.623 159.732L164.477 167.388C163.259 169.215 161.929 170.957 161.016 172.969C160.18 173.939 159.521 174.987 158.798 176.041L155.41 181.103L153.171 184.738C152.594 185.588 151.889 186.346 151.327 187.192L143.205 199.583L138.983 205.97C138.223 207.085 137.375 208.15 136.734 209.346L136.375 209.801L132.569 215.767C131.137 217.51 129.999 219.324 128.781 221.215C128.274 222.003 127.566 222.899 127.293 223.804C125.128 226.62 123.657 229.643 120.472 231.487C119.692 231.939 119.003 232.33 118.097 232.448C116.579 232.647 114.998 232.388 113.794 231.383C113.062 230.771 112.616 229.753 112.388 228.839C112.343 226.998 112.856 225.368 113.569 223.692L115.124 220.969L123.059 208.905L123.558 208.209C124.968 206.732 125.993 204.817 127.111 203.115L133.678 192.961C134.179 192.513 134.568 191.839 134.954 191.287C135.859 189.995 136.736 188.619 137.486 187.23L157.414 157.996C158.257 157.063 158.974 155.833 159.697 154.798C161.103 152.785 162.612 150.751 163.854 148.632L171.048 138.435L176.702 130.635C177.671 129.896 178.324 128.926 179.074 127.977L181.825 124.492Z" fill="#EFBF6A"/>
<path d="M47.7524 77.9843C48.708 77.3142 48.8113 76.7445 49.4396 75.8758L54.7244 68.0176L57.7641 62.9088C58.871 61.148 60.2898 59.5153 61.4261 57.7592L64.229 53.4052C64.8654 52.5139 65.3819 51.7185 66.2859 51.08L66.4938 50.9355C67.9703 49.8962 68.9737 49.6509 70.7508 49.5583C71.6195 49.7239 72.4097 49.9426 73.2393 50.2503C73.3273 50.5104 73.4108 50.825 73.6223 51.0115C74.821 52.067 76.5882 52.9323 77.952 53.7926C80.3376 54.932 82.3198 56.7087 84.5319 58.1281C85.5918 58.808 86.7197 59.3547 87.7681 60.0517C89.2407 61.0302 90.6371 62.1509 92.1472 63.0677C93.5827 63.9394 95.0978 64.6786 96.5038 65.6048C96.9785 65.9175 97.536 66.2319 97.8103 66.7465L92.3973 74.9353C91.8197 75.675 91.1294 76.3837 90.6226 77.169C90.1686 77.8724 89.8816 78.6812 89.3878 79.353L81.8705 89.9822C81.503 90.548 81.2696 91.1568 80.9418 91.7388C80.4008 92.6995 79.6195 93.6297 79.0009 94.5515C78.0275 96.0024 77.1277 98.0326 75.7464 99.0856C75.0928 99.5839 74.7403 100.633 74.3115 101.314L71.168 106.077C70.8838 106.503 70.4466 106.809 70.141 107.259L65.282 114.733C64.6792 115.619 64.0841 116.647 63.3867 117.455C62.7058 118.731 61.8762 119.911 61.332 121.261L63.9936 123.094L80.3748 132.973L89.8541 138.467C91.2882 139.372 92.8238 140.27 93.9712 141.545C96.0176 143.82 97.2627 147.501 97.9488 150.458L98.7981 155.287L99.1977 169.91L99.3271 175.821C99.3745 176.96 99.3937 178.188 99.6476 179.297L99.75 180.863C99.644 182.194 99.7342 183.508 99.7978 184.84C99.8289 185.492 99.9141 186.211 99.8075 186.857C99.6768 188.851 99.9693 190.889 100.077 192.883C100.448 199.717 100.912 206.585 102.242 213.307C102.487 214.547 102.603 215.818 102.966 217.03C103.506 218.831 103.914 220.526 104.687 222.252C104.9 222.727 105.096 223.342 105.469 223.703C105.907 224.127 106.174 224.858 106.47 225.4L106.503 225.528C106.837 226.663 107.943 227.76 108.649 228.715C107.093 228.105 105.754 227.058 104.339 226.172C103.827 225.639 102.855 225.136 102.218 224.727L95.662 220.708L69.335 203.979L62.6783 199.861L60.3372 198.354L28.7518 178.327L21.8473 173.953L15.6538 169.984L11.5736 167.459C11.0687 166.921 10.2683 166.526 9.64881 166.127L5.81949 163.653C4.01183 162.311 2.69681 160.798 1.60633 158.835L0.9799 156.998L0.924116 156.766C0.464776 154.926 0.749813 153.07 1.03069 151.227L17.5628 125.186L24.2003 114.935L26.9872 110.631L28.4976 108.217L33.4868 100.901C34.5206 98.9052 36.0147 97.0014 37.2351 95.1095L42.9164 86.144C44.5851 83.6353 46.7829 80.8587 47.7524 77.9843Z" fill="url(#paint1_linear_1_241)"/>
<path d="M63.994 123.094C63.1397 123.085 62.6126 122.7 61.8497 122.416C58.9276 121.327 56.3048 119.481 53.6526 117.839L41.634 110.441C41.2462 110.223 40.5032 109.917 40.3831 109.496C40.6945 109.076 41.0322 108.911 41.4894 108.675L60.9296 120.841C61.5904 119.774 62.3953 118.221 63.387 117.455C62.7062 118.732 61.8766 119.911 61.3323 121.261L63.994 123.094Z" fill="#EFBF6A"/>
<path d="M64.0836 73.3873L66.5163 69.4344C67.1141 68.4162 67.6314 67.4082 68.5043 66.636C68.7871 66.386 69.0139 65.9036 69.2279 65.5873C69.9678 64.4937 70.738 63.4987 71.2276 62.2533C71.3261 62.0027 71.4319 61.8671 71.6081 61.6702C72.8651 62.1081 74.1752 63.2198 75.3112 63.9358L87.8829 72.0603C89.3784 73.0265 91.0287 73.7884 92.3967 74.935C91.8191 75.6748 91.1289 76.3835 90.6221 77.1688C90.168 77.8722 89.881 78.681 89.3873 79.3527L81.8699 89.982C81.5024 90.5478 81.269 91.1566 80.9412 91.7386C80.4003 92.6993 79.619 93.6295 79.0003 94.5513C78.027 96.0022 77.1272 98.0324 75.7458 99.0853C75.0922 99.5837 74.7397 100.633 74.3109 101.314L71.1674 106.077C70.8832 106.503 70.446 106.809 70.1405 107.258L65.2814 114.733C64.6786 115.618 64.0836 116.647 63.3861 117.454C62.3944 118.221 61.5895 119.774 60.9287 120.84L41.4884 108.674C41.3028 108.593 41.3955 108.661 41.2589 108.417L58.4635 81.9733C59.1241 80.2807 60.2265 78.6966 61.2243 77.1937C62.1052 75.8672 62.9037 74.4736 64.0836 73.3873Z" fill="#E79331"/>
<defs>
<linearGradient id="paint0_linear_1_241" x1="150.817" y1="108.766" x2="128.531" y2="80.0598" gradientUnits="userSpaceOnUse">
<stop stop-color="#A466A1"/>
<stop offset="1" stop-color="#F597C9"/>
</linearGradient>
<linearGradient id="paint1_linear_1_241" x1="61.4992" y1="232.543" x2="42.9484" y2="52.5104" gradientUnits="userSpaceOnUse">
<stop stop-color="#DD9A40"/>
<stop offset="1" stop-color="#F8BE6D"/>
</linearGradient>
</defs>
</svg>
