<svg width="85" height="70" viewBox="0 0 85 70" fill="none" xmlns="http://www.w3.org/2000/svg">
<path d="M54.0909 70C45.4621 70 38.1534 66.6094 32.1648 59.8281C26.1761 53.0469 23.1818 44.7708 23.1818 35C23.1818 25.3021 26.1761 17.0443 32.1648 10.2266C38.1534 3.40885 45.4621 0 54.0909 0C62.6553 0 69.9479 3.40885 75.9688 10.2266C81.9896 17.0443 85 25.3021 85 35C85 44.7708 81.9896 53.0469 75.9688 59.8281C69.9479 66.6094 62.6553 70 54.0909 70ZM54.0909 61.25C60.5303 61.25 66.0038 58.6979 70.5114 53.5937C75.0189 48.4896 77.2727 42.2917 77.2727 35C77.2727 27.7083 75.0189 21.5104 70.5114 16.4062C66.0038 11.3021 60.5303 8.75 54.0909 8.75C47.6515 8.75 42.178 11.3021 37.6705 16.4062C33.1629 21.5104 30.9091 27.7083 30.9091 35C30.9091 42.2917 33.1629 48.4896 37.6705 53.5937C42.178 58.6979 47.6515 61.25 54.0909 61.25ZM62.8807 51.2969L68.3864 45.0625L57.9545 33.25V17.5H50.2273V36.8594L62.8807 51.2969ZM3.86364 21.875V13.125H19.3182V21.875H3.86364ZM0 39.375V30.625H19.3182V39.375H0ZM3.86364 56.875V48.125H19.3182V56.875H3.86364Z" fill="white"/>
</svg>
