<svg width="50" height="85" viewBox="0 0 50 85" fill="none" xmlns="http://www.w3.org/2000/svg">
<path d="M19.7863 85V74.8472C15.0626 73.9028 10.9851 72.0926 7.55372 69.4167C4.12235 66.7407 1.60452 62.963 0.000244141 58.0833L9.89329 54.5417C11.2302 58.3195 13.2133 61.1921 15.8425 63.1597C18.4717 65.1273 21.9254 66.1111 26.2035 66.1111C29.8576 66.1111 32.9548 65.3831 35.4949 63.9271C38.035 62.4711 39.3051 60.2083 39.3051 57.1389C39.3051 54.3843 38.3247 52.2002 36.3639 50.5868C34.4031 48.9734 29.8576 47.1435 22.7275 45.0972C15.0626 42.9722 9.80417 40.434 6.95212 37.4826C4.10007 34.5312 2.67404 30.9306 2.67404 26.6806C2.67404 21.5648 4.5457 17.5903 8.28901 14.7569C12.0323 11.9236 15.8648 10.3102 19.7863 9.91667V0H30.4815V9.91667C34.9379 10.5463 38.6143 11.9826 41.5109 14.2257C44.4076 16.4688 46.5243 19.2037 47.8612 22.4306L37.9682 26.2083C36.8986 23.6898 35.3835 21.8009 33.4227 20.5417C31.4619 19.2824 28.7881 18.6528 25.4013 18.6528C21.4797 18.6528 18.494 19.4201 16.4441 20.9549C14.3942 22.4896 13.3692 24.3981 13.3692 26.6806C13.3692 29.2778 14.7061 31.3241 17.3799 32.8194C20.0537 34.3148 24.6883 35.8889 31.2837 37.5417C37.4334 39.1157 42.0903 41.6146 45.2543 45.0382C48.4182 48.4618 50.0002 52.4167 50.0002 56.9028C50.0002 62.4907 48.1286 66.7407 44.3853 69.6528C40.642 72.5648 36.0074 74.375 30.4815 75.0833V85H19.7863Z" fill="white"/>
</svg>
