<svg width="50" height="80" viewBox="0 0 50 80" fill="none" xmlns="http://www.w3.org/2000/svg">
<path d="M11.5387 80V71.1111H0.000244141V62.2222H7.69255V17.7778H0.000244141V8.88889H11.5387V0H19.231V8.88889H26.9233V0H34.6156V9.44444C37.949 10.4815 40.7054 12.5741 42.8849 15.7222C45.0644 18.8704 46.1541 22.5185 46.1541 26.6667C46.1541 28.8148 45.8336 30.8704 45.1926 32.8333C44.5515 34.7963 43.6541 36.5556 42.5002 38.1111C44.7438 39.6667 46.5547 41.7778 47.9329 44.4444C49.3111 47.1111 50.0002 50.0741 50.0002 53.3333C50.0002 58.2222 48.4938 62.4074 45.481 65.8889C42.4682 69.3704 38.8464 71.1111 34.6156 71.1111V80H26.9233V71.1111H19.231V80H11.5387ZM15.3849 35.5556H30.7695C32.8849 35.5556 34.6958 34.6852 36.2022 32.9444C37.7086 31.2037 38.4618 29.1111 38.4618 26.6667C38.4618 24.2222 37.7086 22.1296 36.2022 20.3889C34.6958 18.6481 32.8849 17.7778 30.7695 17.7778H15.3849V35.5556ZM15.3849 62.2222H34.6156C36.731 62.2222 38.5419 61.3519 40.0483 59.6111C41.5547 57.8704 42.3079 55.7778 42.3079 53.3333C42.3079 50.8889 41.5547 48.7963 40.0483 47.0556C38.5419 45.3148 36.731 44.4444 34.6156 44.4444H15.3849V62.2222Z" fill="white"/>
</svg>
