<svg width="85" height="80" viewBox="0 0 85 80" fill="none" xmlns="http://www.w3.org/2000/svg">
<path d="M42.5 80C35.2879 80 28.6553 78.4546 22.6023 75.3636C16.5492 72.2727 11.5909 68.1515 7.72727 63V72.7273H0V50.9091H23.1818V58.1818H13.6193C16.7102 62.5455 20.7831 66.0606 25.8381 68.7273C30.893 71.3939 36.447 72.7273 42.5 72.7273C47.3295 72.7273 51.8532 71.8636 56.071 70.1364C60.2888 68.4091 63.9593 66.0758 67.0824 63.1364C70.2055 60.197 72.6847 56.7424 74.5199 52.7727C76.3551 48.803 77.2727 44.5455 77.2727 40H85C85 45.5152 83.8892 50.697 81.6676 55.5455C79.446 60.3939 76.4034 64.6364 72.5398 68.2727C68.6761 71.9091 64.1686 74.7727 59.017 76.8636C53.8655 78.9546 48.3598 80 42.5 80ZM39.0227 65.4545V60.7273C35.9962 60.0606 33.5331 58.8333 31.6335 57.0455C29.7339 55.2576 28.3333 52.9091 27.4318 50L33.8068 47.6364C34.5795 50.1212 35.7869 51.9848 37.429 53.2273C39.071 54.4697 40.9545 55.0909 43.0795 55.0909C45.2045 55.0909 47.0237 54.6212 48.5369 53.6818C50.0502 52.7424 50.8068 51.2727 50.8068 49.2727C50.8068 47.5152 50.018 46.0909 48.4403 45C46.8627 43.9091 44.0455 42.6667 39.9886 41.2727C36.1894 40 33.4044 38.4849 31.6335 36.7273C29.8627 34.9697 28.9773 32.6667 28.9773 29.8182C28.9773 27.3333 29.8949 25.0758 31.7301 23.0455C33.5653 21.0152 36.0606 19.697 39.2159 19.0909V14.5455H45.9773V19.0909C48.2955 19.2727 50.4044 20.1515 52.304 21.7273C54.2036 23.303 55.5076 25.1515 56.2159 27.2727L50.0341 29.6364C49.5189 28.2424 48.6818 27.0758 47.5227 26.1364C46.3636 25.197 44.7538 24.7273 42.6932 24.7273C40.4394 24.7273 38.7169 25.1818 37.5256 26.0909C36.3343 27 35.7386 28.2424 35.7386 29.8182C35.7386 31.3939 36.4792 32.6364 37.9602 33.5455C39.4413 34.4545 42.1136 35.5152 45.9773 36.7273C50.6136 38.303 53.7045 40.1515 55.25 42.2727C56.7955 44.3939 57.5682 46.7273 57.5682 49.2727C57.5682 51.0303 57.2462 52.5758 56.6023 53.9091C55.9583 55.2424 55.1051 56.3788 54.0426 57.3182C52.9801 58.2576 51.7405 59.0152 50.3239 59.5909C48.9072 60.1667 47.3939 60.6061 45.7841 60.9091V65.4545H39.0227ZM0 40C0 34.4848 1.1108 29.303 3.33239 24.4545C5.55398 19.6061 8.59659 15.3636 12.4602 11.7273C16.3239 8.09091 20.8314 5.22727 25.983 3.13636C31.1345 1.04545 36.6402 0 42.5 0C49.7121 0 56.3447 1.54545 62.3977 4.63636C68.4508 7.72727 73.4091 11.8485 77.2727 17V7.27273H85V29.0909H61.8182V21.8182H71.3807C68.2898 17.4545 64.2169 13.9394 59.1619 11.2727C54.107 8.60606 48.553 7.27273 42.5 7.27273C37.6705 7.27273 33.1468 8.13636 28.929 9.86364C24.7112 11.5909 21.0407 13.9242 17.9176 16.8636C14.7945 19.803 12.3153 23.2576 10.4801 27.2273C8.64489 31.197 7.72727 35.4545 7.72727 40H0Z" fill="white"/>
</svg>
