<svg width="24" height="24" viewBox="0 0 24 24" fill="none" xmlns="http://www.w3.org/2000/svg">
<rect x="-0.75" y="0.75" width="22.5" height="22.5" rx="11.25" transform="matrix(-1 0 0 1 22.5 0)" stroke="black" stroke-opacity="0.16" stroke-width="1.5"/>
<path d="M9.74168 7.5916C9.81877 7.51435 9.91035 7.45306 10.0112 7.41124C10.112 7.36943 10.22 7.3479 10.3292 7.3479C10.4383 7.3479 10.5464 7.36943 10.6472 7.41124C10.748 7.45306 10.8396 7.51435 10.9167 7.5916L14.7417 11.4166C14.8189 11.4937 14.8802 11.5853 14.922 11.6861C14.9639 11.7869 14.9854 11.895 14.9854 12.0041C14.9854 12.1132 14.9639 12.2213 14.922 12.3221C14.8802 12.4229 14.8189 12.5145 14.7417 12.5916L10.9167 16.4166C10.8395 16.4938 10.7479 16.555 10.6471 16.5967C10.5463 16.6385 10.4383 16.66 10.3292 16.66C10.2201 16.66 10.112 16.6385 10.0112 16.5967C9.91042 16.555 9.81883 16.4938 9.74168 16.4166C9.66453 16.3395 9.60333 16.2479 9.56157 16.1471C9.51982 16.0463 9.49833 15.9382 9.49833 15.8291C9.49833 15.72 9.51982 15.612 9.56157 15.5112C9.60333 15.4103 9.66453 15.3188 9.74168 15.2416L12.975 11.9999L9.74168 8.7666C9.41668 8.4416 9.42501 7.90827 9.74168 7.5916Z" fill="#0C263A"/>
</svg>
