<svg width="278" height="49" viewBox="0 0 278 49" fill="none" xmlns="http://www.w3.org/2000/svg">
<path d="M0 1.18237H17.2469C21.7441 1.18237 25.2213 1.9705 27.6785 3.54676C30.947 5.60982 32.5813 8.83201 32.5813 13.2133C32.5813 17.2236 30.831 20.5502 27.3307 23.1929C32.4074 25.3951 34.9458 29.336 34.9458 35.0154C34.9458 39.8601 33.1144 43.5577 29.4517 46.1075C27.435 47.4985 25.1633 48.2983 22.6365 48.5068C21.5934 48.5996 20.388 48.6459 19.0202 48.6459H16.3428V36.441H18.742C19.9012 36.441 20.7241 36.3483 21.2109 36.1628C22.138 35.8615 22.6017 35.1429 22.6017 34.0069C22.6017 33.0101 22.2192 32.3612 21.4543 32.0596C20.8979 31.8278 20.0981 31.712 19.055 31.712H16.3428V19.0551C17.4786 19.0319 18.3132 18.9044 18.8464 18.6726C19.7737 18.2553 20.2373 17.4903 20.2373 16.3777C20.2373 15.1491 19.6808 14.3839 18.5682 14.0826C18.1741 13.9668 17.5597 13.9088 16.7253 13.9088H14.1174V48.6459H0V1.18237ZM54.8004 1.18237V48.6459H40.6831V1.18237H54.8004Z" fill="white"/>
<path d="M128.785 13.9436V48.6458H114.668V1.18229H132.784C138.301 1.18229 142.578 2.54988 145.615 5.28526C147.33 6.83835 148.64 8.75095 149.544 11.0227C150.309 12.9931 150.692 14.9635 150.692 16.9339C150.692 21.7324 148.594 25.7775 144.398 29.0692L152.534 48.6458H137.722L130.872 33.3462V21.1412H131.984C133.468 21.1412 134.557 20.8284 135.253 20.2024C136.041 19.4838 136.435 18.5333 136.435 17.351C136.435 16.0066 135.879 15.0447 134.766 14.465C134.094 14.1174 132.935 13.9436 131.289 13.9436H128.785ZM174.51 24.8271V37.345H170.442V48.6458H156.325V18.4638C156.325 13.8275 157.287 10.0722 159.211 7.19766C160.857 4.71728 163.071 2.88603 165.852 1.70375C168.564 0.56798 171.462 0 174.545 0C177.512 0 180.178 0.509975 182.543 1.52993C184.93 2.52672 186.762 3.92915 188.037 5.73723C189.938 8.42628 190.888 12.5063 190.888 17.977V48.6458H176.771V18.9158C176.771 17.2236 176.608 16.0529 176.284 15.404C175.82 14.4535 174.974 13.9782 173.745 13.9782C172.447 13.9782 171.532 14.4767 170.998 15.4735C170.627 16.1458 170.442 17.2932 170.442 18.9158V24.8271H174.51ZM213.559 14.8128V48.6458H199.441V1.18229H217.836C224.676 1.18229 230.25 2.49187 234.561 5.11144C238.48 7.49917 241.353 10.8835 243.185 15.2648C244.343 18.0697 244.923 21.1529 244.923 24.5141C244.923 30.7963 243.011 36.1976 239.186 40.7179C234.573 46.1886 228.221 48.924 220.131 48.924C219.204 48.924 217.778 48.8777 215.854 48.785V34.8415H218.115C222.149 34.8415 225.116 34.0997 227.017 32.6161C228.083 31.7814 228.918 30.6456 229.519 29.2084C230.145 27.7479 230.459 26.1832 230.459 24.5141C230.459 21.2687 229.415 18.8 227.329 17.1077C225.451 15.5778 222.449 14.8128 218.324 14.8128H213.559ZM276.948 19.6461V30.2166H267.734C266.668 30.2166 266.019 30.2632 265.786 30.3558C264.79 30.7731 264.291 31.5496 264.291 32.6856C264.291 33.6128 264.628 34.285 265.299 34.7023C265.671 34.9341 266.054 35.0616 266.448 35.0848C266.68 35.0848 267.317 35.0848 268.36 35.0848H277.852V48.6458H266.76C263.561 48.6227 261.103 48.2865 259.388 47.6374C253.547 45.273 250.638 40.7642 250.661 34.1111V15.5081C250.661 10.8489 252.11 7.20934 255.008 4.58978C257.535 2.34122 261.057 1.20545 265.579 1.18229H277.852V14.8128H268.847C267.478 14.8128 266.54 14.9982 266.031 15.3691C265.474 15.7865 265.196 16.3891 265.196 17.1772C265.196 18.1277 265.52 18.8 266.169 19.194C266.657 19.4955 267.652 19.6461 269.159 19.6461H276.948Z" fill="white"/>
<path d="M111.036 1.17065H57.835V7.62271H111.036V1.17065Z" fill="#00D094"/>
<path d="M75.3594 18.4456V43.4214H81.201V18.4456H75.3594Z" fill="#00D094"/>
<path d="M87.8779 18.4456V48.6245H93.7196V18.4456H87.8779Z" fill="#00D094"/>
<path d="M75.5686 10.1204H57.835V16.9887H75.5686V10.1204Z" fill="#00D094"/>
<path d="M75.5684 10.1206H84.5396L76.403 18.4458L75.5684 10.1206Z" fill="#00D094"/>
<path d="M75.3594 10.1204H75.7767V12.0977L75.9852 14.1789L76.4025 18.4456H75.3594V10.1204Z" fill="#00D094"/>
<path d="M93.5105 10.1292H111.244V16.997H93.5105V10.1292Z" fill="#00D094"/>
<path d="M93.5104 10.1287H84.5391L92.6757 18.4535L93.5104 10.1287Z" fill="#00D094"/>
<path d="M93.7189 10.1292H93.3016V12.1063L93.0931 14.1875L92.6758 18.4538H93.7189V10.1292Z" fill="#00D094"/>
</svg>
