<svg width="318" height="48" viewBox="0 0 318 48" fill="none" xmlns="http://www.w3.org/2000/svg">
<path d="M4.62091 2.35132H26.2374C28.6655 2.35132 30.976 2.79671 33.169 3.68752C35.3881 4.57832 37.1764 5.84772 38.5338 7.4957C39.9175 9.14369 40.6093 11.0367 40.6093 13.1746C40.6093 17.0496 38.6252 20.4236 34.657 23.2964C37.2676 24.499 39.3563 26.0802 40.9226 28.0399C42.5152 29.9774 43.3116 32.1376 43.3116 34.5205C43.3116 37.1928 42.5805 39.5202 41.1186 41.5022C39.6825 43.4619 37.6984 44.9541 35.166 45.9785C32.6337 46.9806 29.8141 47.4818 26.7074 47.4818H22.5564V35.9903L26.3942 35.957C27.2296 35.957 27.8954 35.712 28.3912 35.2221C28.8873 34.732 29.1355 34.153 29.1355 33.4849C29.1355 32.8837 28.9265 32.3715 28.5087 31.9483C28.0911 31.5029 27.4907 31.2802 26.7074 31.2802H22.5564V19.2543C25.4281 19.2543 26.864 18.4304 26.864 16.7823C26.864 15.2012 25.7938 14.4106 23.6529 14.4106H20.1285V47.4818H4.62091V2.35132ZM63.91 2.35132V47.4483H48.0891V2.35132H63.91Z" fill="black"/>
<path d="M148.955 14.5442V47.4483H133.448V2.35128H154.908C157.179 2.35128 159.398 2.7076 161.565 3.42024C163.758 4.15516 165.729 5.20185 167.478 6.56033C169.228 7.89653 170.598 9.4443 171.59 11.2036C172.608 12.9852 173.117 14.8893 173.117 16.9159C173.117 19.1875 172.504 21.3811 171.277 23.4968C170.05 25.6125 168.353 27.4385 166.186 28.9752L175.193 47.4483H158.746L151.031 32.8837V21.2252C152.989 21.2252 154.529 20.9914 155.652 20.5237C156.801 20.0561 157.375 19.1095 157.375 17.6842C157.375 16.5707 156.931 15.769 156.044 15.2791C155.182 14.7891 154.099 14.5442 152.793 14.5442H148.955ZM198.611 24.7996V36.7586H194.303V47.4483H178.678V18.2855C178.678 14.9005 179.462 11.9163 181.028 9.33294C182.621 6.7719 184.892 4.78984 187.842 3.38683C190.792 1.96154 194.238 1.2489 198.18 1.2489C200.895 1.2489 203.389 1.70544 205.66 2.61852C207.957 3.50931 209.902 4.7453 211.495 6.32649C213.113 7.8854 214.354 9.70041 215.215 11.7715C216.102 13.8426 216.546 16.014 216.546 18.2855V47.4483H200.882V18.2855C200.882 17.1943 200.556 16.3592 199.903 15.7802C199.277 15.1789 198.507 14.8782 197.593 14.8782C196.679 14.8782 195.896 15.1789 195.243 15.7802C194.617 16.3814 194.303 17.2166 194.303 18.2855V24.7996H198.611ZM241.454 15.7133V47.4817L225.789 47.4483V2.35128H249.09C252.535 2.35128 255.877 2.90802 259.115 4.02153C262.351 5.13504 265.223 6.69394 267.73 8.69826C270.261 10.6803 272.26 13.0187 273.721 15.7133C275.209 18.4081 275.953 21.2474 275.953 24.2317C275.953 28.6411 274.778 32.6387 272.428 36.2242C270.106 39.7874 266.881 42.5822 262.756 44.6089C258.63 46.6354 253.997 47.671 248.855 47.7155L244.036 47.6152V34.4202H247.874C251.347 34.398 254.258 33.5406 256.608 31.8481C258.958 30.1556 260.133 27.8506 260.133 24.9331C260.133 23.2629 259.65 21.7151 258.684 20.2898C257.664 18.8645 256.321 17.7511 254.65 16.9493C252.979 16.1253 251.177 15.7133 249.245 15.7133H241.454ZM311.981 19.7889V30.0108H301.878C300.571 30.0108 299.593 30.1443 298.939 30.4116C298.314 30.6788 297.999 31.2689 297.999 32.182C297.999 33.2734 298.392 33.9637 299.174 34.2532C299.985 34.5427 301.147 34.6874 302.661 34.6874H312.843V47.4483H300.076C297.1 47.4483 294.319 46.9583 291.734 45.9785C289.123 44.9763 287.008 43.5176 285.392 41.6024C283.772 39.6649 282.962 37.36 282.962 34.6874V14.6778C282.962 12.4953 283.667 10.4576 285.077 8.56463C286.513 6.67167 288.38 5.16844 290.678 4.05493C293 2.91915 295.389 2.35128 297.844 2.35128H312.843V15.2791H302.661C300.181 15.2791 298.939 16.0363 298.939 17.5506C298.939 19.0427 300.259 19.7889 302.896 19.7889H311.981Z" fill="black"/>
<path d="M130.415 2.39087H70.499V8.58932H130.415V2.39087Z" fill="#00D094"/>
<path d="M90.2363 18.9866V42.9807H96.8153V18.9866H90.2363Z" fill="#00D094"/>
<path d="M104.334 18.9868V47.9795H110.913V18.9868H104.334Z" fill="#00D094"/>
<path d="M90.4708 10.9888H70.499V17.5871H90.4708V10.9888Z" fill="#00D094"/>
<path d="M90.4707 10.9888L100.574 10.9888L91.4107 18.9867L90.4707 10.9888Z" fill="#00D094"/>
<path d="M90.2363 10.9888H90.7061V12.8883L90.9411 14.8878L91.4111 18.9868H90.2363V10.9888Z" fill="#00D094"/>
<path d="M110.678 10.9971H130.649V17.595H110.678V10.9971Z" fill="#00D094"/>
<path d="M110.678 10.9968L100.574 10.9968L109.738 18.9944L110.678 10.9968Z" fill="#00D094"/>
<path d="M110.913 10.9971H110.443V12.8965L110.208 14.8958L109.738 18.9945H110.913V10.9971Z" fill="#00D094"/>
</svg>
