<svg width="24" height="24" viewBox="0 0 24 24" fill="none" xmlns="http://www.w3.org/2000/svg">
<rect x="-0.75" y="0.75" width="22.5" height="22.5" rx="11.25" transform="matrix(-1 0 0 1 22.5 0)" stroke="black" stroke-opacity="0.4" stroke-width="1.5"/>
<path d="M9.74166 7.59166C9.81876 7.51441 9.91033 7.45312 10.0111 7.4113C10.112 7.36949 10.22 7.34796 10.3292 7.34796C10.4383 7.34796 10.5464 7.36949 10.6472 7.4113C10.748 7.45312 10.8396 7.51441 10.9167 7.59166L14.7417 11.4167C14.8189 11.4938 14.8802 11.5853 14.922 11.6861C14.9638 11.787 14.9854 11.895 14.9854 12.0042C14.9854 12.1133 14.9638 12.2214 14.922 12.3222C14.8802 12.423 14.8189 12.5146 14.7417 12.5917L10.9167 16.4167C10.8395 16.4938 10.7479 16.555 10.6471 16.5968C10.5463 16.6385 10.4383 16.66 10.3292 16.66C10.2201 16.66 10.112 16.6385 10.0112 16.5968C9.91041 16.555 9.81882 16.4938 9.74166 16.4167C9.66451 16.3395 9.60331 16.2479 9.56156 16.1471C9.5198 16.0463 9.49831 15.9383 9.49831 15.8292C9.49831 15.7201 9.5198 15.612 9.56156 15.5112C9.60331 15.4104 9.66451 15.3188 9.74166 15.2417L12.975 12L9.74166 8.76666C9.41666 8.44166 9.425 7.90833 9.74166 7.59166Z" fill="#00D094"/>
</svg>
